<?xml version="1.0" encoding="UTF-8"?>
<svg xmlns="http://www.w3.org/2000/svg" xmlns:xlink="http://www.w3.org/1999/xlink" width="80px" height="80px" viewBox="0 0 80 80" version="1.1">
<g id="surface1">
<path style=" stroke:none;fill-rule:evenodd;fill:rgb(13.72549%,12.156863%,12.54902%);fill-opacity:1;" d="M 55.632812 43.007812 L 47.371094 40.40625 L 45.953125 36.859375 L 45.703125 38.695312 L 42.398438 36.585938 L 43.6875 35.101562 L 41.765625 30.3125 L 49.230469 36.128906 L 49.601562 39.105469 Z M 14.777344 39.09375 L 14.664062 39.210938 L 14.394531 39.0625 Z M 58.089844 49.417969 C 54.101562 49.097656 50.039062 47.863281 45.8125 45.484375 C 41.90625 43.289062 37.753906 41.710938 33.5 40.753906 L 37.269531 38.101562 L 33.40625 32.117188 L 36.015625 28.960938 L 34.382812 25.039062 L 26.980469 28.523438 L 34.464844 21.367188 L 59.519531 42.269531 L 59.15625 44.078125 L 60.324219 43.769531 L 58.996094 44.882812 L 58.605469 46.832031 L 58.421875 47.753906 L 59.800781 47.28125 L 58.1875 48.910156 Z M 62.109375 49.164062 L 60.78125 48.425781 L 62.234375 48.546875 Z M 6.394531 44.414062 C 36.621094 36.855469 36.949219 63.332031 60.0625 57.554688 C 37.753906 67.890625 35.246094 41.105469 6.394531 44.414062 M 70.089844 41.234375 L 50.601562 23.515625 L 45.160156 28.414062 L 34.601562 19.269531 L 19.59375 34.277344 L 19.539062 34.003906 L 18.0625 33.4375 L 19.429688 33.511719 L 19.035156 31.496094 L 18.0625 31.140625 L 18.964844 31.140625 L 18.0625 26.632812 L 17.359375 30.136719 L 18.0625 29.953125 L 17.300781 30.4375 L 16.894531 32.460938 L 18.0625 32.15625 L 16.734375 33.269531 L 16.34375 35.21875 L 16.160156 36.140625 L 17.539062 35.667969 L 15.925781 37.296875 L 15.777344 38.050781 L 15.660156 37.46875 L 15.417969 36.253906 L 13.941406 35.6875 L 15.304688 35.761719 L 14.914062 33.746094 L 13.941406 33.390625 L 14.84375 33.390625 L 13.941406 28.882812 L 13.238281 32.390625 L 13.941406 32.203125 L 13.179688 32.6875 L 12.773438 34.714844 L 13.941406 34.410156 L 12.609375 35.519531 L 12.21875 37.46875 L 12.035156 38.390625 L 13.417969 37.917969 L 11.804688 39.550781 L 11.460938 41.265625 C 11.265625 41.320312 11.074219 41.375 10.882812 41.429688 L 9.183594 40.484375 L 10.792969 40.621094 L 10.449219 38.890625 L 10.203125 37.679688 L 8.726562 37.109375 L 10.09375 37.183594 L 9.703125 35.171875 L 8.726562 34.8125 L 9.632812 34.8125 L 8.726562 30.308594 L 8.027344 33.8125 L 8.726562 33.625 L 7.96875 34.109375 L 7.5625 36.136719 L 8.726562 35.832031 L 7.398438 36.945312 L 7.007812 38.890625 L 6.824219 39.8125 L 8.203125 39.339844 L 6.59375 40.972656 L 6.171875 43.078125 C 4.480469 43.773438 2.820312 44.574219 1.203125 45.484375 C 8.835938 43.085938 15.335938 41.671875 21.632812 41.949219 L 21.78125 41.199219 L 22.589844 40.382812 L 21.898438 40.621094 L 21.992188 40.160156 L 22.1875 39.183594 L 22.851562 38.628906 L 22.265625 38.78125 L 22.46875 37.765625 L 22.851562 37.527344 L 22.5 37.617188 L 22.851562 35.867188 L 23.300781 38.121094 L 22.851562 38.121094 L 23.339844 38.296875 L 23.535156 39.304688 L 22.851562 39.265625 L 23.589844 39.550781 L 23.710938 40.160156 L 23.882812 41.023438 L 23.078125 40.953125 L 23.96875 41.449219 L 24.109375 42.144531 C 24.710938 42.214844 25.3125 42.304688 25.914062 42.40625 L 27.527344 40.777344 L 26.144531 41.25 L 26.332031 40.328125 L 26.722656 38.378906 L 28.050781 37.265625 L 26.882812 37.570312 L 27.289062 35.546875 L 28.050781 35.0625 L 27.347656 35.246094 L 28.050781 31.742188 L 28.953125 36.25 L 28.050781 36.25 L 29.023438 36.605469 L 29.414062 38.621094 L 28.050781 38.546875 L 29.527344 39.113281 L 29.769531 40.328125 L 30.117188 42.054688 L 28.507812 41.921875 L 30.289062 42.910156 L 30.40625 43.507812 C 34.261719 44.730469 38.207031 46.707031 42.449219 49.597656 C 53.421875 57.074219 70.796875 54.246094 78.996094 43.710938 C 75.484375 45.6875 72.027344 47.253906 68.570312 48.253906 L 68.507812 47.957031 L 67.617188 47.460938 L 68.425781 47.527344 L 68.25 46.664062 L 68.128906 46.054688 L 67.390625 45.773438 L 68.074219 45.808594 L 67.878906 44.800781 L 67.390625 44.625 L 67.84375 44.625 L 67.390625 42.371094 L 67.039062 44.125 L 67.390625 44.03125 L 67.011719 44.273438 L 66.808594 45.285156 L 67.390625 45.132812 L 66.726562 45.6875 L 66.53125 46.664062 L 66.4375 47.125 L 67.128906 46.886719 L 66.324219 47.703125 L 66.089844 48.875 C 66.019531 48.890625 65.949219 48.90625 65.875 48.917969 L 65.796875 48.511719 L 64.382812 47.726562 L 65.660156 47.832031 L 65.382812 46.460938 L 65.191406 45.496094 L 64.019531 45.046875 L 65.101562 45.105469 L 64.792969 43.503906 L 64.019531 43.222656 L 64.734375 43.222656 L 64.019531 39.640625 L 63.460938 42.425781 L 64.019531 42.277344 L 63.414062 42.660156 L 63.089844 44.269531 L 64.019531 44.027344 L 62.964844 44.914062 L 62.652344 46.460938 L 62.507812 47.191406 L 63.601562 46.816406 L 62.324219 48.113281 L 62.3125 48.164062 L 62.046875 46.832031 L 61.800781 45.617188 L 60.324219 45.050781 L 61.691406 45.125 L 61.300781 43.109375 L 60.324219 42.753906 L 61.226562 42.753906 L 60.324219 38.246094 L 59.625 41.753906 L 60.324219 41.566406 L 59.5625 42.050781 L 59.523438 42.246094 L 53.039062 36.105469 L 61.542969 37.125 L 53.652344 32.660156 L 54.113281 34.59375 L 49.84375 30.863281 L 47.660156 31.015625 L 46.46875 29.882812 L 53.433594 30.808594 L 52.890625 27.761719 Z M 70.089844 41.234375 "/>
</g>
</svg>
