<?xml version="1.0" encoding="UTF-8"?>
<svg xmlns="http://www.w3.org/2000/svg" xmlns:xlink="http://www.w3.org/1999/xlink" width="140px" height="140px" viewBox="0 0 140 140" version="1.1">
<g id="surface1">
<path style=" stroke:none;fill-rule:evenodd;fill:rgb(13.72549%,12.156863%,12.54902%);fill-opacity:1;" d="M 97.359375 75.265625 L 82.902344 70.710938 L 80.417969 64.503906 L 79.980469 67.71875 L 74.199219 64.023438 L 76.453125 61.425781 L 73.089844 53.046875 L 86.152344 63.226562 L 86.804688 68.433594 Z M 25.863281 68.414062 L 25.660156 68.617188 L 25.195312 68.359375 Z M 101.65625 86.480469 C 94.679688 85.921875 87.566406 83.757812 80.171875 79.597656 C 73.335938 75.753906 66.074219 72.992188 58.625 71.316406 L 65.21875 66.679688 L 58.457031 56.203125 L 63.03125 50.679688 L 60.171875 43.820312 L 47.21875 49.917969 L 60.316406 37.390625 L 104.160156 73.96875 L 103.527344 77.132812 L 105.570312 76.601562 L 103.242188 78.546875 L 102.558594 81.957031 L 102.238281 83.570312 L 104.652344 82.742188 L 101.832031 85.59375 Z M 108.695312 86.039062 L 106.367188 84.742188 L 108.910156 84.957031 Z M 11.1875 77.722656 C 64.085938 64.496094 64.664062 110.832031 105.109375 100.71875 C 66.066406 118.808594 61.683594 71.9375 11.1875 77.722656 M 122.65625 72.160156 L 88.554688 41.15625 L 79.03125 49.726562 L 60.554688 33.726562 L 34.289062 59.988281 L 34.195312 59.507812 L 31.609375 58.511719 L 34 58.644531 L 33.316406 55.117188 L 31.609375 54.496094 L 33.191406 54.496094 L 31.609375 46.609375 L 30.382812 52.742188 L 31.609375 52.417969 L 30.277344 53.261719 L 29.566406 56.808594 L 31.609375 56.273438 L 29.285156 58.222656 L 28.601562 61.632812 L 28.277344 63.246094 L 30.695312 62.417969 L 27.871094 65.269531 L 27.609375 66.585938 L 27.40625 65.574219 L 26.980469 63.449219 L 24.394531 62.453125 L 26.785156 62.585938 L 26.101562 59.058594 L 24.394531 58.433594 L 25.976562 58.433594 L 24.394531 50.546875 L 23.167969 56.683594 L 24.394531 56.359375 L 23.0625 57.203125 L 22.351562 60.75 L 24.394531 60.214844 L 22.070312 62.164062 L 21.386719 65.574219 L 21.0625 67.183594 L 23.480469 66.359375 L 20.65625 69.210938 L 20.054688 72.214844 C 19.71875 72.308594 19.378906 72.40625 19.042969 72.503906 L 16.074219 70.847656 L 18.890625 71.085938 L 18.285156 68.0625 L 17.859375 65.9375 L 15.273438 64.941406 L 17.664062 65.074219 L 16.980469 61.546875 L 15.273438 60.925781 L 16.855469 60.925781 L 15.273438 53.035156 L 14.046875 59.171875 L 15.273438 58.847656 L 13.941406 59.691406 L 13.230469 63.238281 L 15.273438 62.703125 L 12.949219 64.652344 L 12.265625 68.0625 L 11.941406 69.675781 L 14.359375 68.847656 L 11.535156 71.699219 L 10.796875 75.382812 C 7.839844 76.601562 4.9375 78.007812 2.109375 79.597656 C 15.464844 75.402344 26.835938 72.925781 37.859375 73.410156 L 38.121094 72.097656 L 39.53125 70.671875 L 38.324219 71.082031 L 38.484375 70.277344 L 38.828125 68.574219 L 39.988281 67.597656 L 38.96875 67.867188 L 39.324219 66.09375 L 39.988281 65.667969 L 39.375 65.832031 L 39.988281 62.765625 L 40.78125 66.707031 L 39.988281 66.707031 L 40.84375 67.019531 L 41.183594 68.785156 L 39.988281 68.71875 L 41.28125 69.214844 L 41.496094 70.277344 L 41.796875 71.789062 L 40.386719 71.671875 L 41.945312 72.539062 L 42.191406 73.753906 C 43.246094 73.878906 44.296875 74.03125 45.351562 74.210938 L 48.171875 71.359375 L 45.757812 72.1875 L 46.078125 70.574219 L 46.761719 67.164062 L 49.089844 65.214844 L 47.046875 65.75 L 47.753906 62.203125 L 49.089844 61.359375 L 47.859375 61.683594 L 49.089844 55.550781 L 50.667969 63.4375 L 49.089844 63.4375 L 50.792969 64.0625 L 51.476562 67.585938 L 49.089844 67.457031 L 51.671875 68.449219 L 52.097656 70.574219 L 52.703125 73.597656 L 49.886719 73.359375 L 53.003906 75.097656 L 53.210938 76.136719 C 59.960938 78.277344 66.859375 81.738281 74.285156 86.796875 C 93.488281 99.878906 123.898438 94.929688 138.246094 76.496094 C 132.101562 79.953125 126.050781 82.691406 119.996094 84.445312 L 119.890625 83.921875 L 118.332031 83.054688 L 119.742188 83.171875 L 119.4375 81.660156 L 119.226562 80.597656 L 117.933594 80.101562 L 119.128906 80.167969 L 118.785156 78.402344 L 117.933594 78.089844 L 118.722656 78.089844 L 117.933594 74.148438 L 117.320312 77.214844 L 117.933594 77.054688 L 117.269531 77.476562 L 116.914062 79.25 L 117.933594 78.980469 L 116.769531 79.957031 L 116.429688 81.660156 L 116.269531 82.464844 L 117.476562 82.054688 L 116.066406 83.480469 L 115.652344 85.53125 L 115.65625 85.53125 C 115.53125 85.558594 115.40625 85.582031 115.285156 85.609375 L 115.140625 84.898438 L 112.667969 83.519531 L 114.902344 83.707031 L 114.421875 81.304688 L 114.085938 79.617188 L 112.03125 78.828125 L 113.929688 78.933594 L 113.386719 76.132812 L 112.03125 75.636719 L 113.289062 75.636719 L 112.03125 69.375 L 111.058594 74.246094 L 112.03125 73.988281 L 110.972656 74.660156 L 110.410156 77.476562 L 112.03125 77.050781 L 110.183594 78.597656 L 109.644531 81.304688 L 109.386719 82.585938 L 111.304688 81.929688 L 109.0625 84.195312 L 109.046875 84.285156 L 108.578125 81.957031 L 108.152344 79.832031 L 105.570312 78.839844 L 107.960938 78.96875 L 107.273438 75.445312 L 105.570312 74.820312 L 107.148438 74.820312 L 105.570312 66.933594 L 104.339844 73.066406 L 105.570312 72.742188 L 104.238281 73.585938 L 104.167969 73.929688 L 92.816406 63.183594 L 107.703125 64.964844 L 93.890625 57.15625 L 94.699219 60.539062 L 87.222656 54.011719 L 83.40625 54.277344 L 81.316406 52.296875 L 93.507812 53.917969 L 92.558594 48.582031 Z M 122.65625 72.160156 "/>
</g>
</svg>
